<?xml version="1.0" encoding="UTF-8"?>
<svg xmlns="http://www.w3.org/2000/svg" width="52" height="52" viewBox="0 0 512 512" role="img" aria-label="Menorah.">
    <path d="M 262.0,131.5 L 260.5,131.0 L 259.5,119.0 L 256.0,114.5 L 251.5,119.0 L 250.0,131.5 L 244.5,127.0 L 241.5,118.0 L 245.5,98.0 L 255.0,81.5 L 263.5,94.0 L 269.5,113.0 L 268.5,123.0 L 262.0,131.5 Z M 107.0,136.5 L 105.5,136.0 L 106.5,129.0 L 104.5,122.0 L 101.0,118.5 L 98.5,121.0 L 96.5,127.0 L 97.0,136.5 L 92.5,134.0 L 88.5,124.0 L 91.5,108.0 L 101.0,91.5 L 106.5,99.0 L 113.5,116.0 L 113.5,127.0 L 111.5,132.0 L 107.0,136.5 Z M 157.0,136.5 L 155.5,123.0 L 152.0,118.5 L 147.5,125.0 L 147.0,136.5 L 142.5,133.0 L 139.5,126.0 L 139.5,117.0 L 142.5,107.0 L 152.0,91.5 L 162.5,110.0 L 164.5,118.0 L 163.5,129.0 L 160.5,134.0 L 157.0,136.5 Z M 208.0,136.5 L 206.5,136.0 L 207.5,127.0 L 205.5,121.0 L 203.0,118.5 L 198.5,125.0 L 198.0,136.5 L 192.5,132.0 L 190.5,127.0 L 190.5,115.0 L 192.5,109.0 L 195.5,102.0 L 203.0,91.5 L 212.5,108.0 L 215.5,119.0 L 213.5,131.0 L 208.0,136.5 Z M 314.0,136.5 L 312.5,136.0 L 312.5,124.0 L 309.0,119.5 L 305.5,122.0 L 303.5,128.0 L 304.0,136.5 L 298.5,132.0 L 296.5,128.0 L 296.5,115.0 L 299.5,106.0 L 309.0,91.5 L 317.5,106.0 L 321.5,121.0 L 320.5,128.0 L 314.0,136.5 Z M 365.0,136.5 L 363.5,136.0 L 364.5,128.0 L 362.5,122.0 L 360.0,119.5 L 355.5,124.0 L 355.0,136.5 L 349.5,132.0 L 347.5,128.0 L 348.5,111.0 L 359.0,91.5 L 366.5,102.0 L 371.5,116.0 L 371.5,127.0 L 369.5,132.0 L 365.0,136.5 Z M 415.0,136.5 L 414.5,126.0 L 410.0,118.5 L 405.5,125.0 L 405.0,136.5 L 400.5,133.0 L 397.5,126.0 L 397.5,117.0 L 399.5,109.0 L 405.5,97.0 L 410.0,91.5 L 418.5,105.0 L 422.5,118.0 L 421.5,129.0 L 415.0,136.5 Z M 270.0,431.5 L 212.0,429.5 L 186.0,424.5 L 174.5,418.0 L 174.5,413.0 L 176.5,409.0 L 184.0,401.5 L 193.0,396.5 L 212.0,390.5 L 229.0,387.5 L 238.0,387.5 L 242.0,386.5 L 244.5,384.0 L 244.5,328.0 L 239.0,324.5 L 224.0,323.5 L 207.0,319.5 L 192.0,314.5 L 173.0,305.5 L 147.0,287.5 L 127.5,268.0 L 109.5,242.0 L 96.5,211.0 L 91.5,186.0 L 91.0,146.5 L 111.5,147.0 L 111.5,178.0 L 116.5,205.0 L 129.5,235.0 L 145.5,257.0 L 162.0,272.5 L 183.0,286.5 L 203.0,295.5 L 234.0,303.5 L 242.0,303.5 L 244.5,301.0 L 244.5,278.0 L 241.0,274.5 L 230.0,273.5 L 211.0,267.5 L 189.0,255.5 L 182.0,250.5 L 165.5,234.0 L 154.5,218.0 L 146.5,200.0 L 142.5,184.0 L 142.0,146.5 L 162.5,147.0 L 162.5,179.0 L 164.5,188.0 L 171.5,206.0 L 181.5,221.0 L 198.0,236.5 L 211.0,244.5 L 226.0,250.5 L 239.0,253.5 L 242.0,253.5 L 244.5,251.0 L 244.5,228.0 L 240.0,224.5 L 230.0,222.5 L 217.0,215.5 L 204.5,203.0 L 200.5,197.0 L 196.5,189.0 L 192.5,174.0 L 193.0,146.5 L 212.5,147.0 L 212.5,169.0 L 217.5,185.0 L 227.0,196.5 L 242.0,204.5 L 244.5,202.0 L 245.0,142.5 L 266.5,143.0 L 266.5,202.0 L 269.0,204.5 L 280.0,199.5 L 291.5,188.0 L 298.5,169.0 L 298.5,147.0 L 318.5,147.0 L 318.5,175.0 L 314.5,189.0 L 306.5,203.0 L 296.0,213.5 L 283.0,221.5 L 269.0,225.5 L 266.5,228.0 L 266.5,251.0 L 269.0,253.5 L 282.0,251.5 L 304.0,242.5 L 316.0,234.5 L 331.5,219.0 L 340.5,204.0 L 346.5,189.0 L 348.5,179.0 L 348.5,147.0 L 369.5,147.0 L 368.5,185.0 L 364.5,201.0 L 354.5,222.0 L 340.0,240.5 L 318.0,258.5 L 298.0,268.5 L 281.0,273.5 L 270.0,274.5 L 266.5,278.0 L 266.5,301.0 L 269.0,303.5 L 288.0,301.5 L 316.0,292.5 L 344.0,276.5 L 366.5,256.0 L 383.5,232.0 L 394.5,206.0 L 399.5,179.0 L 399.5,147.0 L 419.5,147.0 L 419.5,185.0 L 414.5,211.0 L 408.5,228.0 L 401.5,242.0 L 383.5,268.0 L 364.0,287.5 L 338.0,305.5 L 308.0,318.5 L 293.0,322.5 L 273.0,324.5 L 269.0,325.5 L 266.5,328.0 L 266.5,384.0 L 272.0,387.5 L 294.0,389.5 L 320.0,397.5 L 327.0,401.5 L 335.5,410.0 L 337.5,415.0 L 336.5,419.0 L 329.0,423.5 L 313.0,427.5 L 270.0,431.5 Z" fill="currentColor" fill-rule="evenodd"/>
</svg>
