<svg width="52" height="52" xmlns="http://www.w3.org/2000/svg" viewBox="0 0 512 512" preserveAspectRatio="xMidYMid meet" aria-hidden="true" focusable="false" role="img">
    
    <path d="M 262,131.5 L 260.5,131 L 259.5,119 L 256,114.5 L 251.5,119 L 250,131.5 L 244.5,127 L 241.5,118 L 245.5,98 L 255,81.5 L 263.5,94 L 269.5,113 L 268.5,123 L 262,131.5 Z M 107,136.5 L 105.5,136 L 106.5,129 L 104.5,122 L 101,118.5 L 98.5,121 L 96.5,127 L 97,136.5 L 92.5,134 L 88.5,124 L 91.5,108 L 101,91.5 L 106.5,99 L 113.5,116 L 113.5,127 L 111.5,132 L 107,136.5 Z M 157,136.5 L 155.5,123 L 152,118.5 L 147.5,125 L 147,136.5 L 142.5,133 L 139.5,126 L 139.5,117 L 142.5,107 L 152,91.5 L 162.5,110 L 164.5,118 L 163.5,129 L 160.5,134 L 157,136.5 Z M 208,136.5 L 206.5,136 L 207.5,127 L 205.5,121 L 203,118.5 L 198.5,125 L 198,136.5 L 192.5,132 L 190.5,127 L 190.5,115 L 192.5,109 L 195.5,102 L 203,91.5 L 212.5,108 L 215.5,119 L 213.5,131 L 208,136.5 Z M 314,136.5 L 312.5,136 L 312.5,124 L 309,119.5 L 305.5,122 L 303.5,128 L 304,136.5 L 298.5,132 L 296.5,128 L 296.5,115 L 299.5,106 L 309,91.5 L 317.5,106 L 321.5,121 L 320.5,128 L 314,136.5 Z M 365,136.5 L 363.5,136 L 364.5,128 L 362.5,122 L 360,119.5 L 355.5,124 L 355,136.5 L 349.5,132 L 347.5,128 L 348.5,111 L 359,91.5 L 366.5,102 L 371.5,116 L 371.5,127 L 369.5,132 L 365,136.5 Z M 415,136.5 L 414.5,126 L 410,118.5 L 405.5,125 L 405,136.5 L 400.5,133 L 397.5,126 L 397.5,117 L 399.5,109 L 405.5,97 L 410,91.5 L 418.5,105 L 422.5,118 L 421.5,129 L 415,136.5 Z M 270,431.5 L 212,429.5 L 186,424.5 L 174.5,418 L 174.5,413 L 176.5,409 L 184,401.5 L 193,396.5 L 212,390.5 L 229,387.5 L 238,387.5 L 242,386.5 L 244.5,384 L 244.5,328 L 239,324.5 L 224,323.5 L 207,319.5 L 192,314.5 L 173,305.5 L 147,287.5 L 127.5,268 L 109.5,242 L 96.5,211 L 91.5,186 L 91,146.5 L 111.5,147 L 111.5,178 L 116.5,205 L 129.5,235 L 145.5,257 L 162,272.5 L 183,286.5 L 203,295.5 L 234,303.5 L 242,303.5 L 244.5,301 L 244.5,278 L 241,274.5 L 230,273.5 L 211,267.5 L 189,255.5 L 182,250.5 L 165.5,234 L 154.5,218 L 146.5,200 L 142.5,184 L 142,146.5 L 162.5,147 L 162.5,179 L 164.5,188 L 171.5,206 L 181.5,221 L 198,236.5 L 211,244.5 L 226,250.5 L 239,253.5 L 242,253.5 L 244.5,251 L 244.5,228 L 240,224.5 L 230,222.5 L 217,215.5 L 204.5,203 L 200.5,197 L 196.5,189 L 192.5,174 L 193,146.5 L 212.5,147 L 212.5,169 L 217.5,185 L 227,196.5 L 242,204.5 L 244.5,202 L 245,142.5 L 266.5,143 L 266.5,202 L 269,204.5 L 280,199.5 L 291.5,188 L 298.5,169 L 298.5,147 L 318.5,147 L 318.5,175 L 314.5,189 L 306.5,203 L 296,213.5 L 283,221.5 L 269,225.5 L 266.5,228 L 266.5,251 L 269,253.5 L 282,251.5 L 304,242.5 L 316,234.5 L 331.5,219 L 340.5,204 L 346.5,189 L 348.5,179 L 348.5,147 L 369.5,147 L 368.5,185 L 364.5,201 L 354.5,222 L 340,240.5 L 318,258.5 L 298,268.5 L 281,273.5 L 270,274.5 L 266.5,278 L 266.5,301 L 269,303.5 L 288,301.5 L 316,292.5 L 344,276.5 L 366.5,256 L 383.5,232 L 394.5,206 L 399.5,179 L 399.5,147 L 419.5,147 L 419.5,185 L 414.5,211 L 408.5,228 L 401.5,242 L 383.5,268 L 364,287.5 L 338,305.5 L 308,318.5 L 293,322.5 L 273,324.5 L 269,325.5 L 266.5,328 L 266.5,384 L 272,387.5 L 294,389.5 L 320,397.5 L 327,401.5 L 335.5,410 L 337.5,415 L 336.5,419 L 329,423.5 L 313,427.5 L 270,431.5 Z" fill-rule="evenodd" fill="#f5d76e"/>
</svg>