<svg xmlns="http://www.w3.org/2000/svg" viewBox="0 0 512 512" width="52" height="52" focusable="false" role="img" aria-labelledby="menorah-title" shape-rendering="geometricPrecision" style="fill:#f5d76e;stroke:none"><title id="menorah-title">Менора</title><path d="m262 131.5-1.5-.5-1-12-3.5-4.5-4.5 4.5-1.5 12.5-5.5-4.5-3-9 4-20 9.5-16.5 8.5 12.5 6 19-1 10-6.5 8.5Zm-155 5-1.5-.5 1-7-2-7-3.5-3.5-2.5 2.5-2 6 .5 9.5-4.5-2.5-4-10 3-16 9.5-16.5 5.5 7.5 7 17v11l-2 5-4.5 4.5Zm50 0-1.5-13.5-3.5-4.5-4.5 6.5-.5 11.5-4.5-3.5-3-7v-9l3-10 9.5-15.5 10.5 18.5 2 8-1 11-3 5-3.5 2.5Zm51 0-1.5-.5 1-9-2-6-2.5-2.5-4.5 6.5-.5 11.5-5.5-4.5-2-5v-12l2-6 3-7 7.5-10.5 9.5 16.5 3 11-2 12-5.5 5.5Zm106 0-1.5-.5v-12l-3.5-4.5-3.5 2.5-2 6 .5 8.5-5.5-4.5-2-4v-13l3-9 9.5-14.5 8.5 14.5 4 15-1 7-6.5 8.5Zm51 0-1.5-.5 1-8-2-6-2.5-2.5-4.5 4.5-.5 12.5-5.5-4.5-2-4 1-17L359 91.5l7.5 10.5 5 14v11l-2 5-4.5 4.5Zm50 0-.5-10.5-4.5-7.5-4.5 6.5-.5 11.5-4.5-3.5-3-7v-9l2-8 6-12 4.5-5.5 8.5 13.5 4 13-1 11-6.5 7.5Zm-145 295-58-2-26-5-11.5-6.5v-5l2-4 7.5-7.5 9-5 19-6 17-3h9l4-1 2.5-2.5v-56l-5.5-3.5-15-1-17-4-15-5-19-9-26-18-19.5-19.5-18-26-13-31-5-25-.5-39.5 20.5.5v31l5 27 13 30 16 22 16.5 15.5 21 14 20 9 31 8h8l2.5-2.5v-23l-3.5-3.5-11-1-19-6-22-12-7-5-16.5-16.5-11-16-8-18-4-16-.5-37.5 20.5.5v32l2 9 7 18 10 15 16.5 15.5 13 8 15 6 13 3h3l2.5-2.5v-23l-4.5-3.5-10-2-13-7-12.5-12.5-4-6-4-8-4-15 .5-27.5 19.5.5v22l5 16 9.5 11.5 15 8 2.5-2.5.5-59.5 21.5.5v59l2.5 2.5 11-5 11.5-11.5 7-19v-22h20v28l-4 14-8 14-10.5 10.5-13 8-14 4-2.5 2.5v23l2.5 2.5 13-2 22-9 12-8 15.5-15.5 9-15 6-15 2-10v-32h21l-1 38-4 16-10 21-14.5 18.5-22 18-20 10-17 5-11 1-3.5 3.5v23l2.5 2.5 19-2 28-9 28-16 22.5-20.5 17-24 11-26 5-27v-32h20v38l-5 26-6 17-7 14-18 26-19.5 19.5-26 18-30 13-15 4-20 2-4 1-2.5 2.5v56l5.5 3.5 22 2 26 8 7 4 8.5 8.5 2 5-1 4-7.5 4.5-16 4-43 4Z" fill-rule="evenodd" fill="#f5d76e"/></svg>
